<svg version="1.2" xmlns="http://www.w3.org/2000/svg" viewBox="0 0 206 188" width="88" height="80">
	<title>logo-svg</title>
	<style>
		.s0 { fill: #f49738 } 
		.s1 { fill: #1e2c31 } 
		.s2 { fill: #3a63ad } 
		.s3 { fill: #d1d3d3 } 
		.s4 { fill: none;stroke: #d1d3d3 } 
		.s5 { fill: #37474e } 
	</style>
	<g id="Layer">
		<path id="Layer" class="s0" d="m103 187.2c-18.5 0-36.3-5.4-51.7-15.7l-39.9-2.4c-1.4-0.1-2.5-1.1-2.8-2.5l-8.1-42.8c-0.2-0.8 0-1.6 0.4-2.3 0.5-0.6 1.2-1.1 1.9-1.2 3.3-0.7 6.8-1.3 10.3-1.9-2.2-7.9-3.3-16.1-3.3-24.4 0-51.4 41.8-93.3 93.2-93.3 51.5 0 93.3 41.9 93.3 93.3 0 8.3-1.1 16.5-3.3 24.4q5.3 0.9 10.2 1.9c0.8 0.1 1.5 0.6 2 1.2 0.4 0.7 0.6 1.5 0.4 2.3l-8.1 42.8c-0.3 1.4-1.4 2.4-2.8 2.5l-39.9 2.4c-15.4 10.3-33.3 15.7-51.8 15.7z"/>
		<g id="Layer">
			<path id="Layer" class="s1" d="m59.7 153.6l4.5 15.7-52.6-3.2z"/>
			<path id="Layer" class="s1" d="m194.5 166.1l-52.7 3.2 4.6-15.7z"/>
		</g>
		<path id="Layer" class="s2" d="m103 183.2c-49.3 0-89.2-39.9-89.2-89.2 0-49.4 39.9-89.3 89.2-89.3 49.4 0 89.3 39.9 89.3 89.3 0 49.3-39.9 89.2-89.3 89.2z"/>
		<path id="Layer" class="s3" d="m164.4 103.1c0 7.1-0.9 13.9-2.6 20.4q-6.6-0.7-13.2-1.3-7.4-0.6-14.8-1-30.8-1.8-61.5 0c-5 0.2-9.9 0.6-14.8 1q-6.7 0.5-13.3 1.3c-1.7-6.5-2.6-13.3-2.6-20.4 0-38.9 27.5-70.5 61.4-70.5 33.9 0 61.4 31.6 61.4 70.5z"/>
		<path id="Layer" class="s3" d="m151.5 94c0 5.8-1 11.4-2.9 16.6q-7.4-0.5-14.8-0.9-30.8-1.5-61.5 0-7.4 0.4-14.8 0.9c-1.9-5.2-2.9-10.8-2.9-16.6 0-26.8 21.7-48.5 48.4-48.5 26.8 0 48.5 21.7 48.5 48.5z"/>
		<path id="Layer" class="s3" d="m137.6 94c0 5.6-1.4 11-3.8 15.7q-30.8-1.5-61.5 0c-2.4-4.7-3.8-10.1-3.8-15.7 0-19.1 15.5-34.6 34.5-34.6 19.1 0 34.6 15.5 34.6 34.6z"/>
		<path id="Layer" class="s4" d="m159.6 157c-15 13.5-34.8 21.7-56.6 21.7-20.7 0-39.7-7.5-54.5-19.9"/>
		<path id="Layer" class="s4" d="m48.5 158.8c-18.5-15.5-30.2-38.8-30.2-64.8 0-46.8 37.9-84.8 84.7-84.8 46.8 0 84.7 38 84.7 84.8 0 25-10.8 47.5-28.1 63"/>
		<path id="Layer" class="s0" d="m101.9 173.7c-29.2 0-52.8-12.2-52.8-27.4 0-15.2 23.6-27.5 52.8-27.5 29.3 0 52.9 12.3 52.9 27.5 0 15.2-23.6 27.4-52.9 27.4z"/>
		<g id="Layer">
			<g id="Layer">
				<path id="Layer" fill-rule="evenodd" class="s5" d="m202.7 123.2q-4.1 21.4-8.2 42.9c-60.4-11.6-122.5-11.6-182.9 0q-4.1-21.5-8.2-42.9c27.9-5.3 56.1-8.4 84.4-9.2 18.2-5.7 29.9-13.8 21.7-18.2-9.3-5.1-44.3 5.1-60.6 5.3-29.4 0.5-24.5-12 8.1-21.4 0 0-24.8 27.7 46.7 8.3 51-13.9 65.7 8.5 61.7 29.4q18.7 2.3 37.3 5.8zm-152.5-26.9c-10.3-2.5-4.3-10.3-4.3-10.3-8.5 5.5-8 10.6 4.3 10.3zm84.5 8.4c-1.8 3.5-4.2 6.7-7 9.7q8.3 0.3 16.5 1c9.4-17 2.3-31.3-34-25.6 16.2-1.5 30.4 3.7 24.6 14.9z"/>
			</g>
		</g>
		<g id="Layer">
			<path id="Layer" class="s2" d="m96.3 49.1c-0.2 0.4 2.8-0.4 3-0.6 2.2-1.3 3.9-4.5 5.6-6.4 1 1.2 1-0.1 2.1 0.2 0.9 0.3 1.7 1.3 2.8 1.2 2.7-0.4 1.3-3.8 4.3-1.1 0.9 0.8 1.4 1.5 2 2.5 0.2-0.2 0.5-0.4 0.7-0.6 1.2 1.7 2 3.1 4 4.3 0.3 0.2 0.1 1.1 0.5 1.3 0.7 0.2 0.9-0.8 1.5-0.7 0.6 0.1 1.9 0 2.5 0.3 5.3 2.9 7.3 10.3 11.5 14.3 0.8-2.1 1.7-5.2 2.3-7.7 10.5 4.6 18.3 24.7 25.9 33.5-2.5-1.8-4.8-4-7-6.2-0.3-0.3-5.2-3.7-5.1-3.3 0.4 1.8-2.5 1.6-3.3 0.9-0.2-0.1-0.1-1.4-0.6-1.9-0.7-0.8-2.3-0.4-3-1.1-1.1-1-0.2-1.7-1.6-2.8-0.7-0.6-1.6-0.4-2.1-1.3-0.3-0.5 0.6-1.4 0.2-1.8-0.9-1-2.6 0.2-2.3 1.4-1 0.1-2.5 0.2-2.7 1.3-0.1 0.4-5.3-0.4-5.7-1 0.8-0.1 1.6-0.4 2.3-0.7-0.4-2.2-5.7-0.4-6.8-1.1-1.4-1-0.5-3.5-2.2-4.6-0.3-0.2-2.5-1.2-2.8-0.8 0.4-0.5 0.5-1 1-1.4-1-1.1-4.1-0.3-5.6-0.7 1.5-2.1-1.4-1.4-2.1-2.3-0.8-1 1.2-1.9-1.5-2.4 2.3-1.1-2-1.5-2.6-2q0-0.1 0-0.2c1-0.8 2.7-0.8 4-1.3-0.4-0.3-0.7-0.8-1.4-1 1.1-0.8 0.7-1.5-0.4-1.9 1.6-1.4 2.8-2.1 0-3.2 0.6-1.3 1.6-1.6 1-3.1-0.5-1.2-3.3-3.4-4.7-2.9-0.5 0.2 0 1.2-0.5 1.4-0.5 0.1-0.8-0.1-1.1 0-0.8 0.1-2.3-0.9-2.7 0.7-0.1 0.8 0.8 1.3 1.2 2-1.6 1.2-3.4 2.4-4.9 3.8-0.9 0.9-1.7 3.2-2.8 3.7-0.3-0.8-0.3-1.6-0.3-2.5-0.8-0.2-1.5 0.2-1.8 1 0.8 1-2.4 4.2-2.9 5.7 0.3 0 0.7 0.3 1 0.3 0 0 0 0.3 0 0.3-1 0.3-2 0.6-2.6 1.5-0.2 0.4 0.5 0.9 0.3 1.1-0.4 0.6-1.1 0.7-1.4 1.1-0.3 0.4-0.8 0.5-1.1 0.9-0.1 0.4 0.7 1 0.5 1.5-1.1 2.1-3.5 1.2-5 2.7-0.6 0.7 0.4 1.2 0 1.5-1 0.9-3.8 1-4.2-0.6-1.2-0.2-2 0.2-2.8 0.8-0.4 0.4-19.2 9-11.1 9.5 0-0.1 0.2 0.2 0.2 0.2-5.3 2.3 0.6 4.7 3.2 5.2 5.4 0.9 11.1-0.9 16.4-1.7 4-0.6 8.1-0.9 12.1-1.6 2.3-0.4 6.6-0.2 8.7-1.3-4.4 2.2-8.8 3.4-13.5 4.5-7.7 1.8-21.8 4.3-29.7 3.1-7.8-1.3-6.5-8.8-1.5-12.1 4.3-2.9 4.5-6.4 6.2-8.2 0.1 0.3 0.2 0.8 0.2 1.1 1.5-1.1 2.9-3.5 4.4-4.9 1.6-1.4 3.6-7.6 4.5-2.2 0.3-0.2 0.9-0.4 1.1-0.5 0.2 0.8 0.5 1.7 0.7 2.5 1.5-1.2 2.7 0.3 4.2-0.5 1.3-0.8 1.5-2.7 2.1-3.8 0.2 0.3 0.9 0.6 1.1 0.9 2.6-4.2 5.8-7.8 8.2-12.2z"/>
		</g>
		<g id="Layer">
			<path id="Layer" class="s0" d="m72 62.7q0-0.1-0.4-0.6c-0.2-0.3-0.6-0.8-1-1.5q-0.3-0.6-0.7-1.2-0.3-0.7-0.6-1.4c-0.2-0.6-0.4-1.2-0.6-1.8-0.1-0.6-0.2-1.2-0.4-1.9-0.2-1.4-0.3-2.9-0.1-4.5 0-1.6 0.4-3.3 1.1-5 0.6-1.6 1.5-3.2 2.6-4.7 1.1-1.5 2.5-2.8 4-4 1.5-1 3.2-1.9 5-2.5 1.8-0.6 3.6-1 5.3-1 1.8-0.1 3.5 0.1 5.1 0.5 1.5 0.4 3 1 4.2 1.6 0.6 0.3 1.2 0.6 1.7 1 0.5 0.4 1 0.7 1.5 1.1q0.6 0.6 1.2 1 0.4 0.6 0.9 1c0.5 0.6 0.8 1.2 1.1 1.5q0.4 0.5 0.4 0.5 0 0-0.4-0.5c-0.3-0.3-0.7-0.8-1.3-1.3q-0.5-0.4-1-0.9-0.5-0.4-1.2-0.9-1.4-1-3.2-1.9c-1.2-0.5-2.6-1-4.1-1.3-1.5-0.3-3.2-0.4-4.8-0.3-1.7 0-3.4 0.4-5 1-1.7 0.6-3.2 1.4-4.7 2.4-1.4 1.1-2.7 2.3-3.8 3.7-1 1.4-1.9 2.9-2.5 4.4-0.6 1.6-1.1 3.1-1.2 4.7-0.3 1.5-0.2 2.9-0.1 4.3q0.3 2 0.7 3.6 0.3 0.8 0.6 1.5 0.2 0.6 0.5 1.1c0.3 0.8 0.7 1.3 0.9 1.7q0.3 0.6 0.3 0.6z"/>
		</g>
		<g id="Layer">
			<g id="Layer">
				<path id="Layer" fill-rule="evenodd" class="s3" d="m37.1 147.2q0.8-2.7 2-6.5 1.1-3.6 2.2-7.2 1.1-3.3 1.9-5.7 1.7-0.3 2.5-0.4 1.3-0.2 2.5-0.4 1.4 2.4 2.8 4.9 2.9 5.1 5.8 10.3 0.3 0.7 0.7 1.4-1 0.1-1.9 0.2-0.7 0.1-2.3 0.4-0.5-1.1-1.5-2.9-1-1.9-1.6-3-3.5 0.6-7 1.2-1 3.3-1.8 6.8-1.1 0.2-2.1 0.4-0.6 0.1-2.2 0.5zm6.8-10.6q2.6-0.5 5.1-0.9-1.5-2.8-3.1-5.6-0.4 1.2-0.7 2.4-0.7 2-1.3 4.1z"/>
				<path id="Layer" class="s3" d="m59.4 143.3q-0.1-3.9-0.6-8.9-0.5-5.1-1-8.9 1.7-0.1 2.8-0.3 1.2-0.1 2.4-0.3 1.1-0.2 2.4-0.3 1.6-0.2 2.9-0.2 1.2 0.1 2.3 0.6 1 0.5 1.6 1.3 0.5 0.9 0.6 2 0.1 0.8 0 1.4-0.1 0.7-0.4 1.3-0.3 0.6-0.8 1.1-0.4 0.5-0.8 0.8-0.5 0.3-1 0.5-0.6 0.3-1.6 0.6 0.6 0.9 1.1 1.7 0.5 0.7 2 2.7 0.7 1.1 1.5 2.2 0.1 0.2 0.7 1.1-1.6 0.1-2.1 0.2-0.6 0.1-2.2 0.3-0.9-1.7-1.8-3.3-0.5-0.8-1.1-1.8-1-1.5-2-3-0.3-0.4-0.8-1.2 0.9 0 1.6-0.1 1.2-0.1 2.1-0.6 0.9-0.4 1.3-1.2 0.5-0.9 0.4-1.8-0.1-0.5-0.4-1-0.2-0.4-0.8-0.7-0.6-0.2-1.3-0.2-0.8 0-1.5 0-0.4 0.1-1.1 0.2-0.7 0.1-1.8 0.2 0.2 2.7 0.4 5.3 0.5 4.9 1 9.8-1 0.1-2 0.2-0.5 0.1-2 0.3z"/>
				<path id="Layer" class="s3" d="m76 141.5q0-1.5 0.1-3 0-5.2 0-10.4 0-2.2 0-4.5 2-0.1 2.9-0.2 0.7 0 2.6-0.2 0.3 1 0.5 1.5 0.1 0.4 0.5 1.4 0.3 0.9 0.9 2.3 0.9 2.1 1.5 4.1 0.7 1.8 1.3 3.7 0.7-2.5 1.5-4.9 1.2-3.2 2.4-6.4 0.1-0.3 0.3-0.7 0.1-0.4 0.4-1.5 1.6 0 2.9 0 0.9-0.1 2.8-0.1-0.2 3.7-0.1 8.3 0 4.5 0 6.8 0 1.1 0.1 2.7-1.3 0-1.8 0-0.7 0-1.8 0.1 0-1.3 0-2.2 0-3.9 0-7.8 0-1.6 0-3.2-0.1-0.5-0.1-1.1-2.3 6.5-4.4 12.9-0.3 0.8-0.5 1.6-1.3 0-1.8 0.1-0.6 0-1.8 0.1-1.4-4-2.8-7.9-0.2-0.4-0.7-1.8-0.5-1.3-1-2.6-0.2-0.3-0.2-0.6-0.1-0.2-0.4-1 0 0.8 0 1.6-0.1 0.8-0.1 2.7 0.1 4.1 0.1 8.1 0 0.6 0.1 1.8-0.8 0-1.7 0.1-0.4 0.1-1.7 0.2z"/>
				<path id="Layer" class="s3" d="m112.1 140.4q-3-9-6.6-17.9 1.3 0 2.1 0 0.9 0.1 2.2 0.1 1.8 5.4 3.5 10.8 0.8 2.2 1.5 4.3 0.5-0.9 1.6-3 1.1-2.1 1.6-3.1-0.5-1.8-1.4-4.5-0.9-2.6-1.5-4.4 1.1 0.1 2 0.1 1 0 2.1 0.1 0.5 2.3 1.2 4.7 1.3-2.3 2.4-4.6 1.2 0.1 1.9 0.2 0.8 0 1.9 0.1-1 1.6-2.4 4.1-1.5 2.5-2.3 4.2 0.2 1 0.9 3.3 0.7 2.3 1 3.2 2-3.6 4.1-7.2 1.5-2.7 3-5.4 0.5-0.9 1.1-1.8 1.3 0.1 2.1 0.2 0.9 0.1 2.1 0.2-1.5 2.3-3 4.6-3.1 5-6.1 10.1-0.6 1.1-1.3 2.3-1.4-0.1-2.4-0.2-1 0-2.4-0.1-0.6-2.7-1.4-5.2-1.4 2.4-2.6 5-1.5-0.1-2.5-0.1-1.1-0.1-2.4-0.1z"/>
				<path id="Layer" fill-rule="evenodd" class="s3" d="m132.7 141.6q1.6-2.3 3.8-5.6 2.1-3.1 4.2-6.2 2-2.8 3.4-4.9 1.8 0.2 2.5 0.3 1.4 0.2 2.6 0.3 0.6 2.8 1.2 5.6 1.4 5.7 2.6 11.5 0.2 0.7 0.3 1.5-0.9-0.2-1.9-0.3-0.7-0.1-2.3-0.3-0.2-1.2-0.6-3.2-0.4-2.1-0.7-3.4-3.5-0.4-7-0.8-1.9 2.9-3.7 5.9-1-0.1-2.1-0.2-0.6 0-2.3-0.2zm9.6-8.1q2.6 0.3 5.1 0.6-0.6-3.1-1.3-6.2-0.7 1-1.4 2-1.2 1.8-2.4 3.6z"/>
				<path id="Layer" class="s3" d="m158.8 145q0.4-1.4 1-3.7 0.5-2.3 0.8-3.6-2.1-5.6-4.4-11.2 1.6 0.3 2.4 0.4 0.8 0.2 2.2 0.4 0.4 1.4 1.2 3.6 0.8 2.3 1.4 4.2 2.5-2.8 5.1-5.5 0.3-0.2 0.8-0.8 1.3 0.3 2.3 0.5 0.6 0.1 2.2 0.4-4.8 4.4-9.3 9-0.4 1.6-0.8 3.2-0.3 1.4-0.8 3.8-1.4-0.3-2-0.4-0.7-0.1-2.1-0.3z"/>
			</g>
		</g>
		<g id="Layer">
			<g id="Layer">
				<path id="Layer" class="s3" d="m57.5 45.2q-0.9-0.8-1.8-1.6-1.5-1.2-2.8-2.3-1.3-1-1.8-1.4-0.3-0.2-0.6-0.4 0.8-0.9 1.1-1.3 0.3-0.3 1-1.1 1.1 1 2.1 2 0.3 0.3 0.6 0.5 2.1-2.4 4.4-4.4-0.5-0.7-1.1-1.4-0.6-0.6-0.8-0.8-0.2-0.3-0.5-0.5 0.7-0.5 1.3-1 0.1-0.2 1.1-1 1 1.4 2.1 2.8 0.8 1 1.6 2 0.5 0.6 1 1.2 0.7 0.7 0.8 0.8-0.5 0.4-1 0.8-0.2 0.2-1 1-1.1-1.5-2.5-2.9-2.3 2-4.4 4.3 0.9 0.8 1.8 1.6 0.6 0.5 1.2 1-0.5 0.5-1 1-0.1 0.2-0.8 1.1z"/>
				<path id="Layer" class="s3" d="m67 35.9q-1.3-1.8-2.6-3.7-1.4-1.8-2.2-2.8-0.2-0.3-0.4-0.5 0.6-0.5 1.3-0.9 0.1-0.1 1.1-0.9 1.7 2.9 4.9 7.3-0.5 0.3-1 0.7-0.2 0.1-1.1 0.8z"/>
				<path id="Layer" class="s3" d="m71 33.1q-0.7-1.1-1.1-1.9-0.7-1.1-1.9-3.1-0.8-1.4-1.2-2-0.1-0.2-0.3-0.4 1-0.6 1.3-0.8 0.2-0.1 1.2-0.7 0.8 1.5 1.5 3 1 1.9 2 3.7 0.3 0.5 0.6 0.9-0.5 0.3-1.1 0.7-0.1 0-1 0.6zm0-5.4q0.4-1.2 0.9-2.5 0.4-1.1 0.8-2.3 0.1-0.2 0.3-0.8 0.8-0.4 1.5-0.7 0.1-0.1 1.4-0.6-1.2 2.3-2.2 4.7-0.1 0.5-0.3 0.9 0.4 0.1 0.8 0.2c0.1 0.1 0.8 0.3 2.2 0.8q1.6 0.6 3.2 1.2-0.7 0.3-1.3 0.6-0.4 0.1-1.4 0.6-0.4-0.2-0.7-0.3-0.3-0.1-0.8-0.3-1.5-0.6-3.2-1.1-0.6-0.2-1.2-0.4z"/>
				<path id="Layer" class="s3" d="m80.6 28.2q-0.7-2.1-1.5-4.2-0.7-2.2-1.2-3.3-0.1-0.3-0.2-0.6 0.7-0.3 1.4-0.5 0.1-0.1 1.3-0.5 0.7 3.2 2.5 8.2-0.5 0.2-1.1 0.4-0.3 0.1-1.2 0.5z"/>
				<path id="Layer" class="s3" d="m84.9 26.7q-0.2-1.2-0.5-2.5-0.4-1.5-0.8-3-0.4-1.7-0.8-2.9 1-0.3 1.7-0.5 0.5-0.1 1.5-0.4c0.9 0.6 2 1.5 3.4 2.6q2 1.6 3.2 2.8-0.4-3-0.7-5.9 0-0.2-0.1-0.7 0.9-0.1 1.3-0.1 0.1-0.1 1.2-0.2 0 1.2 0.1 2.3 0.1 2 0.2 4 0.1 1.2 0.2 2.3-0.8 0.1-1.3 0.2-0.5 0.1-1.4 0.3-0.5-0.5-0.8-0.8-0.4-0.3-1.7-1.4-0.8-0.7-2.2-1.7-1-0.8-1.8-1.4 0.2 1 0.8 3.8 0.3 1.1 0.7 2.6-0.7 0.1-1.1 0.2-0.2 0.1-1.1 0.4z"/>
				<path id="Layer" class="s3" d="m103.1 19.1q1.1 0 2.1 0.1 1.4 0.1 2.3 0.1-0.4 2.1-0.7 4.7-1.3 0.1-2.3 0.2-1 0-1.7 0-1.4 0-2.5-0.2-1.2-0.2-2-0.6-0.8-0.5-1.3-1.3-0.6-0.8-0.6-1.8-0.1-0.8 0.1-1.6 0.3-0.8 0.9-1.5 0.7-0.6 1.6-1.1 1-0.5 2.1-0.7 1.1-0.2 2.4-0.1 1.7 0 3.8 0.5 0 0.7 0 1.5-2-0.7-3.6-0.7-1.1 0-2 0.2-1 0.2-1.6 0.7-0.7 0.5-1 1.2-0.3 0.7-0.3 1.5 0.1 0.8 0.5 1.4 0.4 0.6 1.3 1 0.9 0.3 2 0.3 0.4 0 1-0.1 0.5 0 1.1-0.1 0.1-1.1 0.3-2.2-0.4-0.1-0.7-0.1-0.5 0-1.4 0 0.1-0.8 0.2-1.3z"/>
				<path id="Layer" class="s3" d="m121.5 25.6q-0.4 0.7-0.8 1.4-0.9-0.2-1.6-0.3-0.7-0.2-1.2-0.3-1.1-0.3-2.1-0.9-0.9-0.5-1.6-1.2-0.7-0.7-0.9-1.6-0.3-0.9-0.1-1.8 0.2-1.1 0.9-1.9 0.6-0.8 1.7-1.2 1.1-0.4 2.5-0.4 1.3 0 2.8 0.4 1.4 0.4 2.9 1.2-0.2 0.5-0.2 0.7-0.1 0.4-0.2 0.7-0.8-0.5-1.5-0.7-0.6-0.3-1.1-0.5-0.9-0.2-1.8-0.2-0.9 0-1.6 0.3-0.8 0.3-1.3 0.8-0.4 0.6-0.6 1.2-0.2 0.8 0.1 1.6 0.2 0.7 0.9 1.3 0.8 0.6 2 0.9 1.1 0.4 2.8 0.5z"/>
				<path id="Layer" class="s3" d="m122.4 27.7q1-1.8 2-3.9 1.1-2.2 1.9-4.1 0.8 0.3 1.4 0.6 0.4 0.1 1.2 0.5-0.6 1-1.3 2.3-0.6 1.1-1.2 2.3-0.5 0.9-1 1.9 0.6 0.3 1.2 0.6 1.8 0.8 2.3 1.1 0.6 0.2 1.1 0.5-0.3 0.5-0.8 1.1-1.8-0.9-3.1-1.5-1.2-0.5-2.3-0.9-0.7-0.3-1.4-0.5z"/>
				<path id="Layer" class="s3" d="m135.3 23.8q0.9 0.6 1.2 0.8 0.4 0.2 1.3 0.7-1.7 2.1-3.3 4.1-0.1 0.1-0.1 0.2-0.5 0.7-0.5 1.3 0 0.5 0.4 1 0.4 0.5 1.1 0.9 0.4 0.3 0.8 0.5 0.4 0.2 0.7 0.2 0.3 0.1 0.5 0.1 0.3 0 0.6-0.2 0.3 0 0.6-0.2 0.4-0.3 1.2-1.2 0.8-0.8 1.6-1.7 0.7-0.7 1.4-1.6 0.9 0.6 1.3 1 0.6 0.4 1.1 0.8-1.2 1.1-2.3 2.2-1 0.9-1.9 1.8-0.6 0.6-1.1 0.8-0.3 0.2-0.7 0.3-0.4 0.1-0.8 0-0.5 0-1.1-0.2-0.6-0.2-1.2-0.5-0.9-0.4-1.7-0.9-0.8-0.6-1.5-1.2-0.5-0.5-0.9-1-0.4-0.6-0.5-1.1-0.2-0.3-0.1-0.8 0.1-0.5 0.3-0.9 0.2-0.2 0.3-0.5 0.2-0.2 0.5-0.6 0.3-0.4 0.5-0.8 0.3-0.3 0.8-1 0.4-0.6 0.8-1.2 0.3-0.5 0.7-1.1z"/>
				<path id="Layer" fill-rule="evenodd" class="s3" d="m140.4 38.3q1.1-0.9 1.8-1.5 0.7-0.6 2.3-2.1 1.6-1.4 2.2-2 0.1-0.2 0.5-0.6 0.9 0.9 1.5 1.4 0.6 0.6 1.4 1.4 0.9 0.8 1.5 1.4 0.7 0.8 1.1 1.3 0.3 0.5 0.5 0.9 0.2 0.4 0.2 0.7 0.1 0.4 0 0.7-0.1 0.3-0.2 0.5-0.2 0.3-0.4 0.5-0.4 0.2-0.7 0.3-0.4 0.1-0.8 0.1-0.3 0-0.7-0.2-0.4-0.1-0.7-0.2-0.2-0.2-0.7-0.5 0.3 0.4 0.4 0.6 0.1 0.3 0.2 0.6 0.1 0.3 0.1 0.6 0 0.3-0.1 0.6-0.1 0.2-0.3 0.5-0.1 0.2-0.4 0.4-0.5 0.3-1.2 0.4-0.7 0-1.4-0.3-0.6-0.3-1.2-0.8c-0.4-0.3-1.2-1.1-2.3-2.3q-0.8-0.7-1.5-1.4-0.5-0.5-1.1-1zm2.8 0.9q0.7 0.6 1.4 1.3 0.4 0.4 0.7 0.7 0.2 0.2 0.5 0.4 0.3 0.1 0.5 0.2 0.2 0 0.4 0 0.3 0 0.5 0 0.2-0.1 0.4-0.2 0.2-0.2 0.3-0.5 0.1-0.3 0.1-0.6-0.1-0.3-0.3-0.6-0.2-0.4-0.7-0.9-0.8-0.8-1.6-1.6-1.1 0.9-2.2 1.8zm3.2-2.7q0.5 0.6 1 1.1 0.7 0.7 0.9 0.9 0.3 0.2 0.6 0.4 0.3 0.2 0.7 0.3 0.3 0 0.6-0.1 0.3 0 0.5-0.2 0.2-0.1 0.3-0.4 0-0.2 0-0.5-0.1-0.3-0.3-0.6-0.2-0.3-0.8-0.9-0.8-0.8-1.6-1.6-1 0.8-1.9 1.6z"/>
			</g>
		</g>
		<g id="Layer">
			<g id="Layer">
				<path id="Layer" class="s3" d="m84.1 167.8q0.1-0.2 0.2-0.3 0.2-0.4 0.4-0.8 1.1-0.2 2.1-0.5 0.9-0.3 1.9-0.7 0.9-0.5 1.4-0.8 0.4-0.2 0.6-0.3 0.1-0.2 0.2-0.3 0-0.1 0.1-0.2 0.1-0.3 0-0.6-0.2-0.3-0.5-0.5-0.3-0.2-0.8-0.4-0.4-0.1-0.9-0.3-0.5-0.1-1.4-0.2 0.2-0.3 0.4-0.5 0.1-0.2 0.4-0.7 1.4 0.4 2.6 0.8 0.6 0.2 1.1 0.4 0.5 0.3 0.9 0.7 0.3 0.4 0.4 0.7 0.2 0.4 0.1 0.8-0.1 0.2-0.2 0.4-0.1 0.2-0.2 0.4-0.3 0.3-0.7 0.6-0.4 0.3-1.1 0.8-0.8 0.4-1.7 0.8-1 0.4-2.1 0.7 0.3 0.1 0.6 0.3 0.8 0.2 1.6 0.5 0.8 0.2 1.2 0.3 0.3 0.1 0.9 0.2-0.1 0.2-0.2 0.4-0.1 0.3-0.3 0.8-1.7-0.5-3.5-1.1c-1.4-0.5-2.6-1-3.5-1.4z"/>
				<path id="Layer" fill-rule="evenodd" class="s3" d="m98.4 163.1q1 0.1 1.7 0.6 0.6 0.4 1 1.3 0.4 0.9 0.4 2.1 0 0.9-0.3 1.9-0.3 0.9-0.8 1.5-0.5 0.6-1.5 0.9-0.9 0.2-1.9 0.1-1-0.1-1.7-0.5-0.7-0.4-1.1-1-0.3-0.7-0.4-1.4 0-0.6 0.1-1.3 0.2-1 0.7-1.9 0.4-0.9 1-1.4 0.6-0.5 1.3-0.7 0.7-0.3 1.5-0.2zm-0.2 1.2q-0.2 0-0.5 0.1-0.2 0-0.4 0.2-0.3 0.2-0.5 0.5-0.2 0.2-0.3 0.6-0.2 0.4-0.4 0.9-0.1 0.5-0.2 1.1-0.2 0.8-0.1 1.3 0.2 0.6 0.5 0.9 0.4 0.3 0.9 0.4 0.3 0 0.6 0 0.3-0.1 0.6-0.4 0.3-0.2 0.6-0.7 0.2-0.4 0.4-1 0.1-0.6 0.2-1.2 0-0.8-0.1-1.4-0.2-0.6-0.5-0.9-0.3-0.3-0.8-0.4z"/>
				<path id="Layer" class="s3" d="m105.9 171.5q0.1-1 0-2.2 0-1.2-0.1-2.4-0.1-1.2-0.1-2.1-0.3 0.2-0.5 0.3-0.1 0.1-0.7 0.6 0-0.4 0-0.9 0-0.4 0-0.7 0.2-0.1 0.6-0.4 0.3-0.2 0.4-0.3 0 0 0.2-0.2 0.3 0 0.9 0 0.5-0.1 0.9-0.2 0 0.4 0.1 0.8 0 0.3 0 0.8 0.3 2.4 0.5 4.8 0.1 0.4 0.1 0.7 0 0.2 0.1 0.5 0 0.3 0.1 0.6-0.5 0-1.2 0.1-0.7 0.1-1.3 0.2z"/>
				<path id="Layer" fill-rule="evenodd" class="s3" d="m113.2 165.8q-0.5 0-0.8-0.1-0.2-0.1-0.5-0.2-0.2-0.2-0.4-0.4-0.2-0.3-0.3-0.6-0.1-0.6 0-1.1 0.2-0.5 0.6-0.9 0.4-0.5 0.8-0.7 0.5-0.3 1.1-0.5 0.6-0.2 1.1-0.3 0.6-0.1 1.1 0.1 0.5 0.1 0.8 0.4 0.3 0.2 0.5 0.7 0.1 0.2 0.2 0.4 0 0.3 0 0.5 0 0.3-0.1 0.5-0.1 0.3-0.3 0.5-0.1 0.2-0.5 0.5 0.5-0.1 0.7-0.1 0.3 0 0.6 0.1 0.2 0 0.5 0.2 0.2 0.1 0.4 0.3 0.1 0.2 0.3 0.4 0.2 0.6 0.2 1.1-0.1 0.7-0.5 1.2-0.4 0.5-1.1 0.9-0.7 0.5-1.4 0.7-0.8 0.3-1.5 0.4-0.8 0.1-1.4-0.1-0.7-0.1-1-0.5-0.4-0.3-0.5-0.8-0.1-0.3-0.1-0.6 0-0.3 0.1-0.6 0.1-0.3 0.3-0.6 0.2-0.2 0.4-0.4 0.2-0.1 0.7-0.4zm1.8 0q-0.8 0.3-1.1 0.8-0.4 0.5-0.2 1 0.1 0.4 0.4 0.6 0.3 0.2 0.8 0.2 0.4 0.1 0.9-0.1 0.5-0.2 0.9-0.5 0.3-0.3 0.4-0.7 0.1-0.4 0-0.8-0.2-0.5-0.8-0.6-0.5-0.1-1.3 0.1zm-1-3.4q-0.7 0.2-0.9 0.7-0.3 0.5-0.1 1 0.1 0.4 0.3 0.6 0.3 0.2 0.6 0.2 0.4 0 0.8-0.1 0.4-0.2 0.7-0.5 0.2-0.3 0.3-0.6 0.1-0.4 0-0.7-0.2-0.5-0.7-0.6-0.4-0.2-1 0z"/>
			</g>
		</g>
	</g>
</svg>